<?xml version="1.0" standalone="no"?>
<!DOCTYPE svg PUBLIC "-//W3C//DTD SVG 20010904//EN"
 "http://www.w3.org/TR/2001/REC-SVG-20010904/DTD/svg10.dtd">
<svg version="1.0" xmlns="http://www.w3.org/2000/svg"
 width="300.000000pt" height="300.000000pt" viewBox="0 0 300.000000 300.000000"
 preserveAspectRatio="xMidYMid meet">
<metadata>
Created by potrace 1.10, written by Peter Selinger 2001-2011
</metadata>
<g transform="translate(0.000000,300.000000) scale(0.100000,-0.100000)"
fill="#000000" stroke="none">
<path d="M1115 2438 c-6 -19 -45 -219 -45 -231 0 -7 5 -6 13 1 6 7 21 56 32
110 l20 97 328 3 c180 1 327 1 327 -1 0 -2 -25 -54 -55 -115 -59 -120 -60
-122 -45 -122 8 0 140 249 140 265 0 3 -160 5 -355 5 -276 0 -357 -3 -360 -12z"/>
<path d="M1105 2165 c-330 -60 -573 -366 -551 -695 11 -173 67 -306 178 -425
81 -86 149 -134 250 -174 142 -57 304 -62 462 -14 l58 18 -40 33 -41 32 -63
-15 c-196 -46 -398 13 -543 159 -127 129 -181 269 -172 451 7 157 69 289 185
397 106 98 220 145 372 155 79 5 108 2 175 -16 102 -28 179 -70 252 -136 l58
-52 33 27 32 27 -50 47 c-27 26 -50 48 -50 50 0 2 33 14 73 27 95 31 272 34
357 5 93 -31 169 -77 237 -143 l65 -62 35 27 36 26 -78 74 c-209 197 -521 246
-769 120 l-39 -20 -67 31 c-121 56 -256 72 -395 46z m545 -92 c0 -3 -7 -14
-16 -24 -12 -14 -13 -22 -4 -38 14 -28 6 -26 -46 7 -51 31 -55 42 -16 43 15 0
36 4 47 9 25 11 35 12 35 3z"/>
<path d="M1027 2004 c-3 -11 -22 -98 -41 -194 -68 -338 -97 -473 -102 -482 -3
-4 72 -8 167 -8 134 0 170 3 161 12 -8 8 -57 12 -147 13 -74 0 -136 3 -139 5
-4 5 32 216 54 315 6 28 15 68 19 90 5 22 19 87 31 144 14 68 18 107 12 113
-7 7 -12 4 -15 -8z"/>
<path d="M1382 1927 c-171 -209 -199 -506 -71 -748 84 -158 250 -288 429 -335
79 -21 241 -24 320 -5 96 23 229 93 303 161 66 61 67 63 50 82 -37 42 -50 41
-93 -2 -152 -152 -398 -209 -600 -140 -36 13 -66 23 -67 24 -1 1 29 34 67 74
53 55 80 95 114 165 50 105 62 150 72 262 l6 80 -263 -2 -264 -2 -3 -40 -3
-41 221 0 222 0 -7 -42 c-15 -86 -46 -167 -93 -240 -46 -70 -134 -158 -158
-158 -6 0 -42 33 -80 73 -113 118 -164 246 -164 407 0 150 49 284 142 385 28
31 49 57 47 59 -9 8 -69 36 -76 36 -4 0 -27 -24 -51 -53z m472 -433 c17 -17
20 -27 9 -37 -9 -9 -43 22 -43 40 0 18 15 17 34 -3z m-225 -495 c-8 -16 -8
-28 0 -47 7 -13 10 -26 8 -28 -2 -2 -22 8 -45 23 l-42 27 43 22 c23 12 43 22
45 23 1 0 -2 -9 -9 -20z"/>
<path d="M1544 1909 c-24 -40 -80 -156 -95 -195 -10 -27 -9 -27 9 -11 23 21
115 212 110 228 -2 7 -13 -3 -24 -22z"/>
<path d="M1488 1683 c-10 -2 -18 -9 -18 -14 0 -5 119 -9 290 -9 160 0 290 -4
290 -8 0 -5 -9 -17 -21 -28 -32 -28 -91 -113 -87 -124 3 -8 168 172 168 185 0
6 -597 5 -622 -2z"/>
<path d="M1650 1180 c-75 -84 -95 -110 -81 -110 15 0 151 155 151 172 0 15 -9
7 -70 -62z"/>
<path d="M1301 1025 c-13 -36 -21 -68 -19 -71 15 -15 58 92 48 120 -4 12 -13
-3 -29 -49z"/>
<path d="M1271 742 c-42 -45 -53 -52 -47 -32 16 60 18 80 8 80 -6 0 -23 -37
-38 -82 -14 -46 -33 -96 -41 -111 -8 -16 -12 -31 -10 -33 4 -5 197 221 197
231 0 15 -20 -1 -69 -53z"/>
</g>
</svg>
